# xmcd
#
# Track frame offsets:
#	150
#	11524
#	25167
#	39780
#	52215
#	65761
#	79532
#	95619
#	112260
#	125329
#	146774
#	160209
#	174999
#	190900
#	204284
#	222202
#	234277
#	247471
#	265275
#
# Disc length: 3724 seconds
#
# Revision: 1
# Processed by: cddbd v1.5.2PL0 Copyright (c) Steve Scherf et al.
# Submitted via: audiograbber 1.82.02
#
DISCID=100e8a13
DTITLE=Various Artist - Country Radio - April 2017
DYEAR=2017
DGENRE=Country
TTITLE0=Kip Moore - More Girls Like You
TTITLE1=Trace Adkins - Watered Down
TTITLE2=Mike Lowry - Won't Let You
TTITLE3=Matt Gary - Back
TTITLE4=Keith Urban (Ft. Carrie Underwood) - Fighter, The
TTITLE5=Presley and Taylor - This Phone
TTITLE6=Easton Corbin - A Girl Like You
TTITLE7=Zac Brown Band - My Old Man
TTITLE8=Jeremy Bowman (Ft. Johnny Garcia) - American Party
TTITLE9=Reba McEntire - Back To God
TTITLE10=Olivia Dvorak - Don't Come Knockin'
TTITLE11=Christina Taylor - Don't Look Good In Your T-Shirt Anymore
TTITLE12=Blake Shelton - Every Time I Hear That Song
TTITLE13=Lady Antebellum - You Look Good
TTITLE14=Frankie Ballard - You'll Accomp'ny Me
TTITLE15=Sam Hunt - Body Like A Back Road
TTITLE16=Carly Pearce - Every Little Thing
TTITLE17=Chuck Wicks - Whole Damn Thing
TTITLE18=Rachel Holder - You Only Call Me When You're Drunk
EXTD=
EXTT0=
EXTT1=
EXTT2=
EXTT3=
EXTT4=
EXTT5=
EXTT6=
EXTT7=
EXTT8=
EXTT9=
EXTT10=
EXTT11=
EXTT12=
EXTT13=
EXTT14=
EXTT15=
EXTT16=
EXTT17=
EXTT18=
PLAYORDER=
